<svg xmlns="http://www.w3.org/2000/svg" xmlns:xlink="http://www.w3.org/1999/xlink" version="1.1" id="Capa_1" x="0px" y="0px" viewBox="-27.666666 162.3333282 469.3333435 469.3333435" style="enable-background:new -27.666666 162.3333282 469.3333435 469.3333435;" xml:space="preserve" class="svg replaced-svg">
<g>
	<path style="fill:#FF9600;" d="M367,546.333313H47.0833359c-5.8854179,0-10.65625,4.770874-10.6666679,10.65625   l-0.0416641,31.104187c-0.0104179,11.635437,4.5104141,22.572937,12.7291641,30.802063   c8.2291679,8.239624,19.1562538,12.770874,30.7916679,12.770874h254.25c24,0,43.5208435-19.520874,43.5208435-43.520874V557   C377.666687,551.104187,372.8958435,546.333313,367,546.333313z"></path>
	<path style="fill:#FF9600;" d="M324.3333435,205c-6.53125,0-13.2395935,0.65625-20.34375,1.9791565   C279.5833435,178.5208282,244.6041718,162.3333282,207,162.3333282c-70.5833282,0-128,57.4166718-128,128.0000153   C79,296.21875,74.21875,301,68.3333359,301s-10.6666641-4.78125-10.6666641-10.6666565   c0-23.09375,5.3125-45.4375153,15.7916641-66.4062653c1.8645859-3.7291718,1.3854141-8.1979218-1.21875-11.4479218   C69.6354218,209.25,65.375,207.8125,61.3333359,208.8020782c-52.40625,13.0729218-89,59.7604218-89,113.5312653   c0,44.333313,25,84.6354065,64.25,104.5625l-0.1145821,87.4270935c0,2.822876,1.1145821,5.541626,3.1145821,7.552063   c2.0104179,2,4.71875,3.125,7.5520821,3.125H367c5.8958435,0,10.666687-4.770813,10.666687-10.666687v-87.5937195   c39.1041565-19.979187,64-60.21875,64-104.40625C441.666687,257.6354065,389.03125,205,324.3333435,205z M128.4375,458.5833435   C126.4479218,460.2083435,124.0520859,461,121.6770859,461c-3.0833282,0-6.1458282-1.3333435-8.2604141-3.8958435   C109.8958359,452.8020935,79,414.34375,79,386.3333435c0-5.8958435,4.7708359-10.666687,10.6666718-10.666687   s10.6666641,4.7708435,10.6666641,10.666687c0,15.4375,18.1458359,43.2916565,29.5833359,57.2291565   C133.6458435,448.125,132.9895935,454.84375,128.4375,458.5833435z M217.6666718,450.3333435   C217.6666718,456.2291565,212.8958435,461,207,461c-5.8958282,0-10.6666565-4.7708435-10.6666565-10.6666565v-64   c0-5.8958435,4.7708282-10.666687,10.6666565-10.666687c5.8958435,0,10.6666718,4.7708435,10.6666718,10.666687V450.3333435z    M300.5833435,457.1041565c-2.1145935,2.5625-5.1666565,3.8958435-8.25,3.8958435   c-2.3854065,0-4.78125-0.7916565-6.7604065-2.4166565c-4.5520935-3.7395935-5.21875-10.4583435-1.4895935-15.010437   c11.4375-13.96875,29.5833435-41.8541565,29.5833435-57.239563c0-5.8958435,4.770813-10.666687,10.6666565-10.666687   S335,380.4375,335,386.3333435C335,414.34375,304.104187,452.8020935,300.5833435,457.1041565z"></path>
</g>
</svg>